<svg xmlns="http://www.w3.org/2000/svg" viewBox="0 0 2331.78 1128.93"><defs><style>.cls-1,.cls-4{fill:#cf650e;}.cls-2{fill:#9a3017;}.cls-3{font-size:135.37px;fill:#3c0e07;font-family:GildaDisplay-Regular, Gilda Display;}.cls-4{font-size:74.23px;font-family:RageItalic, Rage Italic;}</style></defs><title>Asset 1</title><g id="Layer_2" data-name="Layer 2"><g id="Layer_1-2" data-name="Layer 1"><path class="cls-1" d="M1184.92,19.44a505.38,505.38,0,0,1,165.91-9.32q-.08,38.83-.16,77.67a264.68,264.68,0,0,0-165.75,6Q1184.92,56.59,1184.92,19.44Z"/><path class="cls-1" d="M1176.65,22a1023.93,1023.93,0,0,1-32.51,268.69l20.37-2.45A1182.71,1182.71,0,0,0,1192.73,114c2.84-33.15,4.14-64.68,4.3-94.37Z"/><path class="cls-1" d="M1170.49,261.94a383.14,383.14,0,0,0,79.65,104.95c59.66,55.35,123,78.38,158.08,88.26l31.07,207.42c-39.22-15.32-104.89-34.23-184.59-25.3-185.53,20.78-287.26,174.51-302.88,199L890.11,634.17a1656.18,1656.18,0,0,1,280.38-372.22Z"/><path class="cls-2" d="M1179.94,24.46A505.38,505.38,0,0,0,1015.57.08l-6.9,77.36a264.68,264.68,0,0,1,164.52,21Z"/><path class="cls-2" d="M1196.64,28.6a1023.93,1023.93,0,0,0,7.93,270.54l-20.07-4.29a1182.71,1182.71,0,0,1-12.23-176.17c.18-33.27,1.76-64.79,4.3-94.37Z"/><path class="cls-2" d="M1196.3,258.23a383.14,383.14,0,0,1-88.86,97.27C1043,405.19,977.82,422.37,942,429L892.17,632.75c40.45-11.69,107.57-24.54,186.13-8.4,182.87,37.57,270.2,199.92,283.53,225.68l79.84-195.62a1655.39,1655.39,0,0,0-74.28-148.6A1660.43,1660.43,0,0,0,1196.3,258.23Z"/><text class="cls-3" transform="translate(892.72 948.24)">DUHERI</text><text class="cls-4" transform="translate(883.87 1010.51)">Traditionally Yours!</text></g></g></svg>